# xmcd
#
# Track frame offsets:
#	150
#	20367
#	38360
#	58132
#
# Disc length: 1042 seconds
# Revision: 0
# Processed by: cddbd v1.5.2PL0 Copyright (c) Steve Scherf et al.
# Submitted via: dBpowerAMP V12.0
#
DISCID=26041004
DTITLE=Indian - Big Serious Balloon EP
DYEAR=1994
DGENRE=Pop
TTITLE0=Assassination
TTITLE1=Sugar Cube
TTITLE2=Bunny Suit
TTITLE3=Sex Line Valentine
EXTD=
EXTT0=
EXTT1=
EXTT2=
EXTT3=
PLAYORDER=
